<mxfile host="Electron" agent="Mozilla/5.0 (X11; Linux x86_64) AppleWebKit/537.36 (KHTML, like Gecko) draw.io/24.7.5 Chrome/126.0.6478.183 Electron/31.3.0 Safari/537.36" version="24.7.5">
  <diagram name="Page-1" id="a4M66RPA5giSBbwAsvv1">
    <mxGraphModel dx="1687" dy="1165" grid="1" gridSize="10" guides="1" tooltips="1" connect="1" arrows="1" fold="1" page="1" pageScale="1" pageWidth="850" pageHeight="1100" math="0" shadow="0">
      <root>
        <mxCell id="0" />
        <mxCell id="1" parent="0" />
        <mxCell id="3wnq5Mo-Z_YwxwN3zLFy-3" style="edgeStyle=orthogonalEdgeStyle;rounded=0;orthogonalLoop=1;jettySize=auto;html=1;entryX=0;entryY=0.5;entryDx=0;entryDy=0;" edge="1" parent="1" source="3wnq5Mo-Z_YwxwN3zLFy-1" target="3wnq5Mo-Z_YwxwN3zLFy-2">
          <mxGeometry relative="1" as="geometry">
            <Array as="points">
              <mxPoint x="240" y="420" />
              <mxPoint x="240" y="290" />
            </Array>
          </mxGeometry>
        </mxCell>
        <mxCell id="3wnq5Mo-Z_YwxwN3zLFy-5" style="edgeStyle=orthogonalEdgeStyle;rounded=0;orthogonalLoop=1;jettySize=auto;html=1;entryX=0;entryY=0.5;entryDx=0;entryDy=0;" edge="1" parent="1" source="3wnq5Mo-Z_YwxwN3zLFy-1" target="3wnq5Mo-Z_YwxwN3zLFy-4">
          <mxGeometry relative="1" as="geometry">
            <Array as="points">
              <mxPoint x="210" y="420" />
              <mxPoint x="210" y="420" />
            </Array>
          </mxGeometry>
        </mxCell>
        <mxCell id="3wnq5Mo-Z_YwxwN3zLFy-7" style="edgeStyle=orthogonalEdgeStyle;rounded=0;orthogonalLoop=1;jettySize=auto;html=1;entryX=0;entryY=0.5;entryDx=0;entryDy=0;exitX=1;exitY=0.5;exitDx=0;exitDy=0;" edge="1" parent="1" source="3wnq5Mo-Z_YwxwN3zLFy-1" target="3wnq5Mo-Z_YwxwN3zLFy-6">
          <mxGeometry relative="1" as="geometry">
            <Array as="points">
              <mxPoint x="240" y="420" />
              <mxPoint x="240" y="560" />
            </Array>
          </mxGeometry>
        </mxCell>
        <mxCell id="3wnq5Mo-Z_YwxwN3zLFy-1" value="Composite instruction" style="rounded=0;whiteSpace=wrap;html=1;" vertex="1" parent="1">
          <mxGeometry x="80" y="390" width="120" height="60" as="geometry" />
        </mxCell>
        <mxCell id="3wnq5Mo-Z_YwxwN3zLFy-2" value="Composite instruction" style="rounded=0;whiteSpace=wrap;html=1;" vertex="1" parent="1">
          <mxGeometry x="290" y="260" width="120" height="60" as="geometry" />
        </mxCell>
        <mxCell id="3wnq5Mo-Z_YwxwN3zLFy-36" style="edgeStyle=orthogonalEdgeStyle;rounded=0;orthogonalLoop=1;jettySize=auto;html=1;entryX=0;entryY=0.5;entryDx=0;entryDy=0;" edge="1" parent="1" source="3wnq5Mo-Z_YwxwN3zLFy-4" target="3wnq5Mo-Z_YwxwN3zLFy-35">
          <mxGeometry relative="1" as="geometry" />
        </mxCell>
        <mxCell id="3wnq5Mo-Z_YwxwN3zLFy-4" value="Composite instruction" style="rounded=0;whiteSpace=wrap;html=1;" vertex="1" parent="1">
          <mxGeometry x="290" y="390" width="120" height="60" as="geometry" />
        </mxCell>
        <mxCell id="3wnq5Mo-Z_YwxwN3zLFy-6" value="Composite instruction" style="rounded=0;whiteSpace=wrap;html=1;" vertex="1" parent="1">
          <mxGeometry x="280" y="530" width="120" height="60" as="geometry" />
        </mxCell>
        <mxCell id="3wnq5Mo-Z_YwxwN3zLFy-18" style="edgeStyle=orthogonalEdgeStyle;rounded=0;orthogonalLoop=1;jettySize=auto;html=1;entryX=0;entryY=0.5;entryDx=0;entryDy=0;exitX=1;exitY=0.5;exitDx=0;exitDy=0;" edge="1" parent="1" target="3wnq5Mo-Z_YwxwN3zLFy-20" source="3wnq5Mo-Z_YwxwN3zLFy-6">
          <mxGeometry relative="1" as="geometry">
            <mxPoint x="410" y="500" as="sourcePoint" />
          </mxGeometry>
        </mxCell>
        <mxCell id="3wnq5Mo-Z_YwxwN3zLFy-19" style="edgeStyle=orthogonalEdgeStyle;rounded=0;orthogonalLoop=1;jettySize=auto;html=1;entryX=0;entryY=0.5;entryDx=0;entryDy=0;" edge="1" parent="1" target="3wnq5Mo-Z_YwxwN3zLFy-21" source="3wnq5Mo-Z_YwxwN3zLFy-6">
          <mxGeometry relative="1" as="geometry">
            <mxPoint x="410" y="500" as="sourcePoint" />
          </mxGeometry>
        </mxCell>
        <mxCell id="3wnq5Mo-Z_YwxwN3zLFy-46" style="edgeStyle=orthogonalEdgeStyle;rounded=0;orthogonalLoop=1;jettySize=auto;html=1;" edge="1" parent="1" source="3wnq5Mo-Z_YwxwN3zLFy-20" target="3wnq5Mo-Z_YwxwN3zLFy-45">
          <mxGeometry relative="1" as="geometry" />
        </mxCell>
        <mxCell id="3wnq5Mo-Z_YwxwN3zLFy-20" value="MoveInstr" style="rounded=0;whiteSpace=wrap;html=1;" vertex="1" parent="1">
          <mxGeometry x="470" y="510" width="70" height="30" as="geometry" />
        </mxCell>
        <mxCell id="3wnq5Mo-Z_YwxwN3zLFy-48" style="edgeStyle=orthogonalEdgeStyle;rounded=0;orthogonalLoop=1;jettySize=auto;html=1;entryX=0;entryY=0.5;entryDx=0;entryDy=0;" edge="1" parent="1" source="3wnq5Mo-Z_YwxwN3zLFy-21" target="3wnq5Mo-Z_YwxwN3zLFy-47">
          <mxGeometry relative="1" as="geometry" />
        </mxCell>
        <mxCell id="3wnq5Mo-Z_YwxwN3zLFy-21" value="MoveInstr" style="rounded=0;whiteSpace=wrap;html=1;" vertex="1" parent="1">
          <mxGeometry x="470" y="580" width="70" height="30" as="geometry" />
        </mxCell>
        <mxCell id="3wnq5Mo-Z_YwxwN3zLFy-23" style="edgeStyle=orthogonalEdgeStyle;rounded=0;orthogonalLoop=1;jettySize=auto;html=1;entryX=0;entryY=0.5;entryDx=0;entryDy=0;" edge="1" parent="1" target="3wnq5Mo-Z_YwxwN3zLFy-25">
          <mxGeometry relative="1" as="geometry">
            <mxPoint x="410" y="290" as="sourcePoint" />
          </mxGeometry>
        </mxCell>
        <mxCell id="3wnq5Mo-Z_YwxwN3zLFy-24" style="edgeStyle=orthogonalEdgeStyle;rounded=0;orthogonalLoop=1;jettySize=auto;html=1;entryX=0;entryY=0.5;entryDx=0;entryDy=0;" edge="1" parent="1" target="3wnq5Mo-Z_YwxwN3zLFy-26">
          <mxGeometry relative="1" as="geometry">
            <mxPoint x="410" y="290" as="sourcePoint" />
          </mxGeometry>
        </mxCell>
        <mxCell id="3wnq5Mo-Z_YwxwN3zLFy-38" style="edgeStyle=orthogonalEdgeStyle;rounded=0;orthogonalLoop=1;jettySize=auto;html=1;entryX=0;entryY=0.5;entryDx=0;entryDy=0;" edge="1" parent="1" source="3wnq5Mo-Z_YwxwN3zLFy-25" target="3wnq5Mo-Z_YwxwN3zLFy-37">
          <mxGeometry relative="1" as="geometry" />
        </mxCell>
        <mxCell id="3wnq5Mo-Z_YwxwN3zLFy-25" value="MoveInstr" style="rounded=0;whiteSpace=wrap;html=1;" vertex="1" parent="1">
          <mxGeometry x="480" y="240" width="70" height="30" as="geometry" />
        </mxCell>
        <mxCell id="3wnq5Mo-Z_YwxwN3zLFy-40" style="edgeStyle=orthogonalEdgeStyle;rounded=0;orthogonalLoop=1;jettySize=auto;html=1;" edge="1" parent="1" source="3wnq5Mo-Z_YwxwN3zLFy-26" target="3wnq5Mo-Z_YwxwN3zLFy-39">
          <mxGeometry relative="1" as="geometry" />
        </mxCell>
        <mxCell id="3wnq5Mo-Z_YwxwN3zLFy-26" value="MoveInstr" style="rounded=0;whiteSpace=wrap;html=1;" vertex="1" parent="1">
          <mxGeometry x="480" y="310" width="70" height="30" as="geometry" />
        </mxCell>
        <mxCell id="3wnq5Mo-Z_YwxwN3zLFy-31" style="edgeStyle=orthogonalEdgeStyle;rounded=0;orthogonalLoop=1;jettySize=auto;html=1;entryX=0;entryY=0.5;entryDx=0;entryDy=0;exitX=1;exitY=0.5;exitDx=0;exitDy=0;" edge="1" parent="1" target="3wnq5Mo-Z_YwxwN3zLFy-33" source="3wnq5Mo-Z_YwxwN3zLFy-4">
          <mxGeometry relative="1" as="geometry">
            <mxPoint x="650" y="400" as="sourcePoint" />
          </mxGeometry>
        </mxCell>
        <mxCell id="3wnq5Mo-Z_YwxwN3zLFy-32" style="edgeStyle=orthogonalEdgeStyle;rounded=0;orthogonalLoop=1;jettySize=auto;html=1;entryX=0;entryY=0.5;entryDx=0;entryDy=0;exitX=1;exitY=0.5;exitDx=0;exitDy=0;" edge="1" parent="1" target="3wnq5Mo-Z_YwxwN3zLFy-34" source="3wnq5Mo-Z_YwxwN3zLFy-4">
          <mxGeometry relative="1" as="geometry">
            <mxPoint x="650" y="430" as="sourcePoint" />
          </mxGeometry>
        </mxCell>
        <mxCell id="3wnq5Mo-Z_YwxwN3zLFy-42" style="edgeStyle=orthogonalEdgeStyle;rounded=0;orthogonalLoop=1;jettySize=auto;html=1;" edge="1" parent="1" source="3wnq5Mo-Z_YwxwN3zLFy-33" target="3wnq5Mo-Z_YwxwN3zLFy-41">
          <mxGeometry relative="1" as="geometry" />
        </mxCell>
        <mxCell id="3wnq5Mo-Z_YwxwN3zLFy-33" value="MoveInstr" style="rounded=0;whiteSpace=wrap;html=1;" vertex="1" parent="1">
          <mxGeometry x="480" y="370" width="70" height="30" as="geometry" />
        </mxCell>
        <mxCell id="3wnq5Mo-Z_YwxwN3zLFy-44" style="edgeStyle=orthogonalEdgeStyle;rounded=0;orthogonalLoop=1;jettySize=auto;html=1;" edge="1" parent="1" source="3wnq5Mo-Z_YwxwN3zLFy-34" target="3wnq5Mo-Z_YwxwN3zLFy-43">
          <mxGeometry relative="1" as="geometry" />
        </mxCell>
        <mxCell id="3wnq5Mo-Z_YwxwN3zLFy-34" value="MoveInstr" style="rounded=0;whiteSpace=wrap;html=1;" vertex="1" parent="1">
          <mxGeometry x="480" y="405" width="70" height="30" as="geometry" />
        </mxCell>
        <mxCell id="3wnq5Mo-Z_YwxwN3zLFy-35" value="..." style="rounded=0;whiteSpace=wrap;html=1;" vertex="1" parent="1">
          <mxGeometry x="480" y="450" width="70" height="30" as="geometry" />
        </mxCell>
        <mxCell id="3wnq5Mo-Z_YwxwN3zLFy-37" value="WPT" style="rounded=0;whiteSpace=wrap;html=1;" vertex="1" parent="1">
          <mxGeometry x="590" y="240" width="70" height="30" as="geometry" />
        </mxCell>
        <mxCell id="3wnq5Mo-Z_YwxwN3zLFy-39" value="WPT" style="rounded=0;whiteSpace=wrap;html=1;" vertex="1" parent="1">
          <mxGeometry x="590" y="310" width="70" height="30" as="geometry" />
        </mxCell>
        <mxCell id="3wnq5Mo-Z_YwxwN3zLFy-41" value="WPT" style="rounded=0;whiteSpace=wrap;html=1;" vertex="1" parent="1">
          <mxGeometry x="590" y="370" width="70" height="30" as="geometry" />
        </mxCell>
        <mxCell id="3wnq5Mo-Z_YwxwN3zLFy-43" value="WPT" style="rounded=0;whiteSpace=wrap;html=1;" vertex="1" parent="1">
          <mxGeometry x="590" y="405" width="70" height="30" as="geometry" />
        </mxCell>
        <mxCell id="3wnq5Mo-Z_YwxwN3zLFy-45" value="WPT" style="rounded=0;whiteSpace=wrap;html=1;" vertex="1" parent="1">
          <mxGeometry x="590" y="510" width="70" height="30" as="geometry" />
        </mxCell>
        <mxCell id="3wnq5Mo-Z_YwxwN3zLFy-47" value="WPT" style="rounded=0;whiteSpace=wrap;html=1;" vertex="1" parent="1">
          <mxGeometry x="590" y="580" width="70" height="30" as="geometry" />
        </mxCell>
      </root>
    </mxGraphModel>
  </diagram>
</mxfile>
